<svg width="100" height="100" viewBox="0 0 100 100" fill="none" xmlns="http://www.w3.org/2000/svg">
<path d="M17.2301 60.114C17.0134 62.6752 18.1218 63.4418 19.8579 64.6585C21.5745 65.8613 32.0329 56.6946 35.4523 55.3001C38.8718 53.9057 70.9718 47.1085 69.5801 40.9029C68.1884 34.6974 58.4884 33.7807 51.0162 35.0474C43.544 36.314 29.244 42.8863 25.0662 46.4335C20.8884 49.9779 17.2301 60.114 17.2301 60.114ZM41.1801 64.2724C41.1801 64.2724 31.2995 67.4807 31.2995 75.814C31.2995 84.1474 33.7051 88.8474 34.844 91.1279C35.9829 93.4085 39.5329 95.6168 44.4412 93.4918C50.1412 91.0224 43.0773 76.814 61.1079 83.3363C69.369 86.3224 77.9384 90.3585 86.2718 87.5807C94.1773 84.9446 97.2218 75.0001 97.2218 69.4446C97.2218 58.0724 88.8884 61.1113 86.1106 63.889C83.3329 66.6668 61.1106 72.2224 58.3329 72.2224C55.5551 72.2224 41.1801 64.2724 41.1801 64.2724Z" fill="black"/>
<path d="M53.6448 78.2999C53.6448 78.2999 53.3115 74.6443 49.8254 74.2193C46.9615 73.8721 42.4476 74.8276 40.1032 79.5138C37.7587 84.2026 33.5921 83.4193 33.7671 87.3249C33.9421 91.2304 35.1559 94.2693 37.6726 95.0499C40.1921 95.8332 43.7504 94.4443 44.1837 90.2776C44.6171 86.111 45.1393 82.2915 47.8282 80.6415C50.5226 78.9943 53.6448 78.2999 53.6448 78.2999Z" fill="black"/>
<path d="M49.9995 72.2221C49.9995 72.2221 47.2217 69.4443 41.6662 69.4443C36.1106 69.4443 23.1551 75.3693 27.0829 87.1527C29.8606 95.486 37.7606 91.5804 38.8884 83.3332C40.019 75.0749 49.9995 72.2221 49.9995 72.2221Z" fill="black"/>
<path d="M47.2227 72.2221C47.2227 72.2221 44.4449 69.4443 38.8894 69.4443C33.3338 69.4443 25.3199 73.6943 25.0005 86.111C24.7394 96.2666 36.1977 91.6666 36.1116 83.3332C36.0255 74.9999 47.2227 72.2221 47.2227 72.2221Z" fill="black"/>
<path d="M13.8887 75C13.8887 84.1583 15.1581 89.6833 20.6331 88.7416C29.7137 87.1805 26.2664 75.925 34.2137 72.7583C39.9831 70.4611 48.3831 71.0083 56.4914 75.8222C61.8331 78.9944 58.3331 66.6666 52.7776 63.8889C47.222 61.1111 30.5553 63.8889 27.7776 63.8889C24.9998 63.8889 13.8887 75 13.8887 75Z" fill="black"/>
<path d="M13.4499 75.4833C9.0305 82.886 11.7194 90.5388 19.4444 88.8888C26.9194 87.2944 23.1749 77.5833 30.5555 72.2221C34.6916 69.2166 43.6055 68.2083 49.1611 70.986C54.7166 73.7638 55.5555 66.6666 49.9999 63.8888C44.4444 61.111 26.2777 63.8194 23.5055 63.9916C18.2027 64.3221 13.4499 75.4833 13.4499 75.4833Z" fill="black"/>
<path d="M26.1602 80.8721C25.7118 81.3864 25.1664 81.8073 24.5553 82.1107C23.9442 82.4142 23.2792 82.5943 22.5985 82.6407C21.9178 82.6872 21.2345 82.599 20.5879 82.3813C19.9412 82.1637 19.3437 81.8207 18.8296 81.3721L18.2852 80.8971C17.2474 79.9915 16.6117 78.7109 16.5179 77.3367C16.4242 75.9626 16.88 74.6074 17.7852 73.5693L80.3491 1.8554C80.7975 1.34112 81.3428 0.920219 81.954 0.616747C82.5651 0.313276 83.23 0.13318 83.9108 0.0867484C84.5915 0.0403164 85.2747 0.128458 85.9214 0.346138C86.5681 0.563817 87.1655 0.90677 87.6796 1.3554L88.2213 1.8304C89.2595 2.73556 89.8957 4.01602 89.99 5.39019C90.0843 6.76435 89.629 8.1197 88.7241 9.15818L26.1602 80.8721Z" fill="black"/>
<path d="M29.139 77.4612C22.5834 84.9751 6.04733 99.7084 3.95289 97.8834C1.85844 96.0584 14.2112 77.6751 20.7668 70.1584C27.3223 62.6418 25.3807 68.6529 27.6918 70.6723C30.0029 72.689 35.6946 69.9501 29.139 77.4612Z" fill="black"/>
<path d="M18.5332 69.5166C18.5332 72.2944 25.2582 74.8361 28.036 72.0583C30.8138 69.2805 37.3165 65.8694 45.8665 69.4444C65.8776 77.8055 58.3332 66.6666 49.9999 63.8889C41.6665 61.1111 27.7776 63.8889 24.9999 63.8889C22.2221 63.8889 18.5332 69.5166 18.5332 69.5166Z" fill="black"/>
<path d="M17.2084 61.2306C16.214 58.139 23.2862 41.0112 26.489 38.3584C30.5223 35.0195 46.1251 29.8501 51.6806 29.8501C57.2362 29.8501 97.2223 50.0001 97.2223 63.889C97.2223 77.7779 91.6667 79.514 83.6806 81.6834C77.2945 83.4195 63.9167 82.3557 58.0723 76.9084C52.9501 72.1362 49.3917 68.8362 44.4445 66.6668C35.2723 62.6445 29.1584 67.8445 26.3806 70.6223C20.8251 76.1779 10.3584 70.1806 19.089 60.6779C25.3362 53.8751 30.839 51.7557 36.1112 50.0001C52.7778 44.4445 63.889 44.4445 58.3334 38.889C56.3695 36.9251 55.3001 39.8501 52.5667 40.3473C47.0667 41.3473 42.689 42.0195 35.4417 44.4362C32.9362 45.2695 21.0751 52.8334 17.2084 61.2306Z" fill="black"/>
<path d="M36.6557 45.2083C39.6112 44.1305 52.4946 41.7861 59.1973 39.4639C64.6112 37.5861 69.3612 41.2305 59.0862 45.0972C49.1696 48.8277 38.8668 48.5222 31.3529 51.5055C28.5112 52.6333 26.0473 49.075 36.6557 45.2083Z" fill="black"/>
<path d="M62.4631 22.2861C62.4631 22.2861 45.9964 41.1611 39.002 49.1222C45.2631 46.55 50.8658 47.0389 56.2186 43.8889C61.5714 40.7389 64.0131 37.3834 72.1353 28.0695C75.152 24.6139 62.4631 22.2861 62.4631 22.2861Z" fill="black"/>
</svg>
