<svg width="139" height="143" viewBox="0 0 139 143" fill="none" xmlns="http://www.w3.org/2000/svg">
<g filter="url(#filter0_d_2328_5536)">
<path d="M93.8866 24.6667C104.395 24.6667 112.845 33.1708 112.845 43.625C112.845 53.8625 104.72 62.2042 94.5908 62.5833C94.1574 62.5292 93.6699 62.5292 93.1824 62.5833M104.341 111.333C108.241 110.521 111.924 108.95 114.957 106.621C123.407 100.283 123.407 89.8292 114.957 83.4917C111.978 81.2167 108.349 79.7 104.503 78.8333M54.6158 61.8792C54.0741 61.825 53.4241 61.825 52.8283 61.8792C39.9366 61.4458 29.6991 50.8833 29.6991 37.8833C29.6991 24.6125 40.4241 13.8333 53.7491 13.8333C67.0199 13.8333 77.7991 24.6125 77.7991 37.8833C77.7449 50.8833 67.5074 61.4458 54.6158 61.8792ZM27.5324 81.8667C14.4241 90.6417 14.4241 104.942 27.5324 113.663C42.4283 123.629 66.8574 123.629 81.7533 113.663C94.8616 104.888 94.8616 90.5875 81.7533 81.8667C66.9116 71.9542 42.4824 71.9542 27.5324 81.8667Z" stroke="black" stroke-width="5" stroke-linecap="round" stroke-linejoin="round"/>
</g>
<defs>
<filter id="filter0_d_2328_5536" x="-10" y="-8" width="160" height="160" filterUnits="userSpaceOnUse" color-interpolation-filters="sRGB">
<feFlood flood-opacity="0" result="BackgroundImageFix"/>
<feColorMatrix in="SourceAlpha" type="matrix" values="0 0 0 0 0 0 0 0 0 0 0 0 0 0 0 0 0 0 127 0" result="hardAlpha"/>
<feOffset dy="4"/>
<feGaussianBlur stdDeviation="7.5"/>
<feComposite in2="hardAlpha" operator="out"/>
<feColorMatrix type="matrix" values="0 0 0 0 0 0 0 0 0 1 0 0 0 0 0 0 0 0 0.5 0"/>
<feBlend mode="normal" in2="BackgroundImageFix" result="effect1_dropShadow_2328_5536"/>
<feBlend mode="normal" in="SourceGraphic" in2="effect1_dropShadow_2328_5536" result="shape"/>
</filter>
</defs>
</svg>
