<svg width="100" height="100" viewBox="0 0 100 100" fill="none" xmlns="http://www.w3.org/2000/svg">
<g clip-path="url(#clip0_3402_5264)">
<path d="M65.5 8.31242C72.2367 11.432 78.8237 14.0603 86 15.9999C86.9862 36.5999 82.1712 54.5657 68.4024 70.5234C64.5928 74.4507 60.4754 77.8582 56 80.9999C55.1802 81.6084 54.3603 82.2168 53.5156 82.8437C51 83.9999 51 83.9999 48.5196 83.4101C31.4534 73.8583 21.8104 59.7396 15.9453 41.4452C14.2859 35.3973 13.8644 29.8485 13.9375 23.6249C13.942 22.8889 13.9465 22.1528 13.9512 21.3944C13.9629 19.5962 13.9808 17.7981 14 15.9999C15.1486 15.6364 16.2971 15.2729 17.4805 14.8984C25.9602 12.1664 33.9579 9.35608 41.8125 5.10148C50.5221 2.09154 57.4929 4.49808 65.5 8.31242ZM38.75 12.2499C32.3284 15.4579 25.888 17.9348 19 19.9999C17.7054 34.9606 23.1593 51.76 32.6172 63.328C39.8185 72.0203 39.8185 72.0203 49 77.9999C59.2118 75.414 67.413 63.912 72.6211 55.328C78.6677 44.1698 81.3779 32.6388 81 19.9999C80.4664 19.8088 79.9327 19.6177 79.3828 19.4208C76.92 18.5356 74.46 17.6428 72 16.7499C71.1608 16.4496 70.3217 16.1492 69.4571 15.8398C65.4247 14.3706 61.6307 12.8492 57.875 10.7655C51.0911 7.29344 45.3203 8.77405 38.75 12.2499Z" fill="black"/>
<path d="M67.7051 76.5507C72.2298 76.3767 75.1594 76.3553 78.834 79.2069C81.1348 81.6327 81.1348 81.6327 83.1543 84.0937C85.7177 86.6525 87.871 87.3047 91.3223 88.2577C93.2172 90.1526 92.5025 92.8291 92.5527 95.3476C92.3223 97.2577 92.3223 97.2577 90.3223 99.2577C88.4473 99.5233 88.4473 99.5233 86.3223 99.5077C85.2704 99.5154 85.2704 99.5154 84.1973 99.5233C82.3223 99.2577 82.3223 99.2577 80.3223 97.2577C80.1985 95.4324 80.1985 95.4324 80.0723 93.5702C79.5939 89.3417 78.2419 86.7164 75.3535 83.6015C71.4366 81.0103 66.8931 81.2008 62.3223 81.2577C63.9002 78.6505 64.7309 77.4332 67.7051 76.5507ZM85.3223 92.2577C85.3223 92.9177 85.3223 93.5777 85.3223 94.2577C85.9823 94.2577 86.6423 94.2577 87.3223 94.2577C87.3223 93.5977 87.3223 92.9377 87.3223 92.2577C86.6623 92.2577 86.0023 92.2577 85.3223 92.2577Z" fill="black"/>
<path d="M32.9043 76.5867C35.927 77.4266 36.7342 78.6205 38.3223 81.2585C37.2356 81.245 37.2356 81.245 36.127 81.2312C30.4144 81.3569 30.4144 81.3569 25.291 83.6023C21.3069 87.8989 20.71 91.5389 20.3223 97.2585C18.3223 99.2585 18.3223 99.2585 16.4473 99.5242C15.746 99.519 15.0448 99.5138 14.3223 99.5085C13.2704 99.5163 13.2704 99.5163 12.1973 99.5242C10.3223 99.2585 10.3223 99.2585 8.32227 97.2585C8.05664 95.3835 8.05664 95.3835 8.07227 93.2585C8.06711 92.5573 8.06195 91.856 8.05664 91.1335C8.32227 89.2585 8.32227 89.2585 10.3223 87.2585C11.1885 87.0523 12.0548 86.846 12.9473 86.6335C16.5502 85.1657 17.5406 84.0134 20.0098 81.1335C24.072 76.8203 27.121 76.4235 32.9043 76.5867ZM13.3223 92.2585C13.3223 92.9185 13.3223 93.5785 13.3223 94.2585C13.9823 94.2585 14.6423 94.2585 15.3223 94.2585C15.3223 93.5985 15.3223 92.9385 15.3223 92.2585C14.6623 92.2585 14.0023 92.2585 13.3223 92.2585Z" fill="black"/>
<path d="M53.3231 30.2579C55.1981 31.4454 55.1981 31.4454 56.3231 33.2579C56.5731 35.8829 56.5731 35.8829 56.3231 38.2579C55.9931 38.5879 55.6631 38.9179 55.3231 39.2579C55.4133 41.4484 55.5698 43.6364 55.7606 45.8204C55.8625 47.018 55.9643 48.2155 56.0692 49.4493C56.153 50.3762 56.2368 51.303 56.3231 52.2579C52.3631 52.2579 48.4031 52.2579 44.3231 52.2579C44.4069 51.3311 44.4907 50.4043 44.577 49.4493C44.6789 48.2518 44.7807 47.0543 44.8856 45.8204C44.9901 44.6255 45.0945 43.4305 45.202 42.1993C45.242 41.2287 45.282 40.258 45.3231 39.2579C44.9931 38.9279 44.6631 38.5979 44.3231 38.2579C44.0314 35.486 43.9595 33.8438 45.4481 31.4454C48.1947 29.706 50.1416 29.8602 53.3231 30.2579Z" fill="black"/>
<path d="M92.1973 40.9922C92.8985 40.9973 93.5998 41.0025 94.3223 41.0078C95.0235 41.0027 95.7248 40.9975 96.4473 40.9922C98.3223 41.2578 98.3223 41.2578 100.322 43.2578C100.588 45.1328 100.588 45.1328 100.572 47.2578C100.577 47.9591 100.583 48.6603 100.588 49.3828C100.322 51.2578 100.322 51.2578 98.3223 53.2578C97.456 53.4641 96.5898 53.6703 95.6973 53.8828C92.1385 55.3327 90.8744 56.6058 88.3223 59.3828C84.7413 63.198 84.7413 63.198 80.8223 63.7578C79.9973 63.5928 79.1723 63.4278 78.3223 63.2578C78.6559 60.144 79.2434 59.3242 81.6973 57.2578C82.5635 56.5978 83.4298 55.9378 84.3223 55.2578C86.9329 52.6471 87.5042 50.7066 87.8848 47.1328C88.5192 41.5132 88.5192 41.5132 92.1973 40.9922ZM93.3223 46.2578C93.3223 46.9178 93.3223 47.5778 93.3223 48.2578C93.9823 48.2578 94.6423 48.2578 95.3223 48.2578C95.3223 47.5978 95.3223 46.9378 95.3223 46.2578C94.6623 46.2578 94.0023 46.2578 93.3223 46.2578Z" fill="black"/>
<path d="M4.19694 40.9922C4.89819 40.9973 5.59944 41.0025 6.32194 41.0078C7.02319 41.0027 7.72444 40.9975 8.44694 40.9922C10.3219 41.2578 10.3219 41.2578 12.3219 43.2578C12.4457 45.0831 12.4457 45.0831 12.5719 46.9453C13.1443 52.7753 16.9012 56.01 21.0173 59.832C22.3219 61.2578 22.3219 61.2578 22.3219 63.2578C18.6211 63.63 16.9289 63.7495 13.9782 61.3594C13.2666 60.5421 12.5551 59.7248 11.8219 58.8828C8.51902 55.1132 6.15763 53.6026 1.32194 52.2578C-0.57295 50.3629 0.141749 47.6864 0.091471 45.168C0.422749 42.4223 1.45802 41.3802 4.19694 40.9922ZM5.32194 46.2578C5.32194 46.9178 5.32194 47.5778 5.32194 48.2578C5.98194 48.2578 6.64194 48.2578 7.32194 48.2578C7.32194 47.5978 7.32194 46.9378 7.32194 46.2578C6.66194 46.2578 6.00194 46.2578 5.32194 46.2578Z" fill="black"/>
<path d="M88.3223 65.2578C94.377 65.0625 94.377 65.0625 96.3223 65.2578C98.3223 67.2578 98.3223 67.2578 98.5879 69.1328C98.5827 69.8341 98.5776 70.5353 98.5723 71.2578C98.5774 71.9591 98.5826 72.6603 98.5879 73.3828C98.3223 75.2578 98.3223 75.2578 96.3223 77.2578C93.6339 77.5277 91.0308 77.3452 88.3223 77.2578C87.6623 75.9378 87.0023 74.6178 86.3223 73.2578C81.0423 73.2578 75.7623 73.2578 70.3223 73.2578C71.3123 71.9378 72.3023 70.6178 73.3223 69.2578C76.459 68.8672 76.459 68.8672 80.0098 69.0078C81.779 69.062 81.779 69.062 83.584 69.1172C84.9394 69.1868 84.9394 69.1868 86.3223 69.2578C86.9823 67.9378 87.6423 66.6178 88.3223 65.2578ZM91.3223 70.2578C91.3223 70.9178 91.3223 71.5778 91.3223 72.2578C91.9823 72.2578 92.6423 72.2578 93.3223 72.2578C93.3223 71.5978 93.3223 70.9378 93.3223 70.2578C92.6623 70.2578 92.0023 70.2578 91.3223 70.2578Z" fill="black"/>
<path d="M6.26758 65.0625C8.28581 65.1276 10.304 65.1927 12.3223 65.2578C12.9823 66.5778 13.6423 67.8978 14.3223 69.2578C15.2259 69.2114 16.1295 69.165 17.0605 69.1172C18.24 69.0811 19.4195 69.045 20.6348 69.0078C22.3924 68.9382 22.3924 68.9382 24.1855 68.8672C25.7382 69.0605 25.7382 69.0605 27.3223 69.2578C28.3123 70.5778 29.3023 71.8978 30.3223 73.2578C25.0423 73.2578 19.7623 73.2578 14.3223 73.2578C13.6623 74.5778 13.0023 75.8978 12.3223 77.2578C6.26758 77.4531 6.26758 77.4531 4.32227 77.2578C2.32227 75.2578 2.32227 75.2578 2.05664 73.3828C2.0618 72.6816 2.06695 71.9803 2.07227 71.2578C2.06711 70.5566 2.06195 69.8553 2.05664 69.1328C2.44821 66.3688 3.49176 65.3412 6.26758 65.0625ZM7.32227 70.2578C7.32227 70.9178 7.32227 71.5778 7.32227 72.2578C7.98227 72.2578 8.64227 72.2578 9.32227 72.2578C9.32227 71.5978 9.32227 70.9378 9.32227 70.2578C8.66227 70.2578 8.00227 70.2578 7.32227 70.2578Z" fill="black"/>
</g>
<defs>
<clipPath id="clip0_3402_5264">
<rect width="100" height="100" fill="white"/>
</clipPath>
</defs>
</svg>
