<svg width="100" height="100" viewBox="0 0 100 100" fill="none" xmlns="http://www.w3.org/2000/svg">
<g clip-path="url(#clip0_3402_5215)">
<path fill-rule="evenodd" clip-rule="evenodd" d="M31.0717 4.12141C37.3604 1.3966 44.1422 -0.00623461 50.9958 2.08285e-05C57.8495 0.00627626 64.6287 1.42149 70.9124 4.15777C77.1961 6.89405 82.8502 10.893 87.5236 15.9062C92.1969 20.9194 95.7897 26.8399 98.0788 33.3C100.007 38.7143 99.1503 44.9143 95.8288 49.6C94.1632 51.9236 91.97 53.819 89.4294 55.1302C86.8889 56.4415 84.0735 57.1312 81.2145 57.1428H67.8574C65.2941 57.1337 62.8125 58.0439 60.863 59.7082C58.9134 61.3725 57.6251 63.6805 57.2319 66.2135C56.8387 68.7465 57.3666 71.3365 58.7199 73.5134C60.0731 75.6904 62.162 77.3101 64.6074 78.0786C68.536 79.5428 71.286 83.0928 71.5503 87.2643C71.808 89.6356 71.2277 92.0224 69.91 94.0107C68.5923 95.9989 66.6203 97.4634 64.336 98.15C59.9729 99.39 55.4576 100.013 50.9217 100C41.7599 99.9944 32.7757 97.4716 24.9503 92.7071C17.1551 87.9057 10.8141 81.0728 6.60745 72.9413C2.40076 64.8098 0.487081 55.6865 1.07168 46.55C1.75026 37.4209 4.90101 28.6487 10.1861 21.1741C15.4711 13.6996 22.6911 7.80461 31.0717 4.12141ZM32.1431 50C33.5501 50 34.9434 49.7228 36.2433 49.1844C37.5432 48.646 38.7243 47.8568 39.7193 46.8618C40.7142 45.8669 41.5034 44.6858 42.0418 43.3859C42.5803 42.086 42.8574 40.6927 42.8574 39.2857C42.8574 37.8787 42.5803 36.4854 42.0418 35.1855C41.5034 33.8856 40.7142 32.7045 39.7193 31.7095C38.7243 30.7146 37.5432 29.9254 36.2433 29.387C34.9434 28.8485 33.5501 28.5714 32.1431 28.5714C29.3015 28.5714 26.5763 29.7002 24.567 31.7095C22.5576 33.7189 21.4288 36.4441 21.4288 39.2857C21.4288 42.1273 22.5576 44.8525 24.567 46.8618C26.5763 48.8712 29.3015 50 32.1431 50ZM75.0003 28.5714C75.0003 31.413 73.8714 34.1382 71.8621 36.1476C69.8528 38.1569 67.1276 39.2857 64.286 39.2857C61.4444 39.2857 58.7191 38.1569 56.7098 36.1476C54.7005 34.1382 53.5717 31.413 53.5717 28.5714C53.5717 25.7298 54.7005 23.0046 56.7098 20.9953C58.7191 18.9859 61.4444 17.8571 64.286 17.8571C67.1276 17.8571 69.8528 18.9859 71.8621 20.9953C73.8714 23.0046 75.0003 25.7298 75.0003 28.5714ZM32.1431 75C34.0375 75 35.8543 74.2474 37.1939 72.9079C38.5334 71.5683 39.286 69.7515 39.286 67.8571C39.286 65.9627 38.5334 64.1459 37.1939 62.8064C35.8543 61.4668 34.0375 60.7143 32.1431 60.7143C30.2487 60.7143 28.4319 61.4668 27.0923 62.8064C25.7528 64.1459 25.0003 65.9627 25.0003 67.8571C25.0003 69.7515 25.7528 71.5683 27.0923 72.9079C28.4319 74.2474 30.2487 75 32.1431 75Z" fill="black"/>
</g>
<defs>
<clipPath id="clip0_3402_5215">
<rect width="100" height="100" fill="white"/>
</clipPath>
</defs>
</svg>
