<svg width="36" height="33" viewBox="0 0 36 33" fill="none" xmlns="http://www.w3.org/2000/svg">
<path d="M31 0C33.475 0.495 33.475 0.495 36 1C35.4954 5.83529 33.1499 9.17821 30.4375 13.0625C29.5282 14.3877 28.6193 15.7132 27.7109 17.0391C27.2556 17.6994 26.8002 18.3597 26.3311 19.04C25.0747 20.89 23.8614 22.7599 22.6641 24.6484C21.9705 25.7338 21.277 26.8192 20.5625 27.9375C19.945 28.9159 19.3276 29.8943 18.6914 30.9023C18.1332 31.5946 17.5751 32.2868 17 33C13.4504 33 13.1158 32.5141 10.6445 30.1562C10.0226 29.5697 9.40059 28.9832 8.75977 28.3789C8.11717 27.7589 7.47457 27.1388 6.8125 26.5C6.1583 25.88 5.5041 25.2599 4.83008 24.6211C3.21363 23.0872 1.60406 21.5468 0 20C0.66 18.68 1.32 17.36 2 16C5.23861 17.4442 7.61969 19.2577 10.25 21.625C10.9564 22.2566 11.6628 22.8883 12.3906 23.5391C12.9217 24.0212 13.4528 24.5033 14 25C17.897 21.5189 20.3754 17.4819 23.0625 13.0625C23.7132 12.0077 23.7132 12.0077 24.377 10.9316C26.6109 7.30353 28.8163 3.65862 31 0Z" fill="black"/>
</svg>
