<svg width="134" height="144" viewBox="0 0 134 144" fill="none" xmlns="http://www.w3.org/2000/svg">
<g filter="url(#filter0_d_2328_5546)">
<path d="M44.7826 111.46C43.4717 111.893 42.7601 113.307 43.1934 114.618C43.6266 115.929 45.0406 116.64 46.3516 116.207L44.7826 111.46ZM77.0868 115.917L76.862 113.427L77.0868 115.917ZM95.9987 111.75L97.0875 114L95.9987 111.75ZM114.069 95.452L112.133 93.8704L114.069 95.452ZM101.71 85.2542L103.47 87.0296L101.71 85.2542ZM93.3875 93.5055L95.1477 95.2809L93.3875 93.5055ZM70.7829 94.6667C69.4022 94.6667 68.2829 95.786 68.2829 97.1667C68.2829 98.5474 69.4022 99.6667 70.7829 99.6667V94.6667ZM112.148 84.2295L110.769 86.3151L112.148 84.2295ZM51.9634 81.4959L53.0738 83.7358H53.0738L51.9634 81.4959ZM74.5837 79.4444L75.2363 77.0311L74.5837 79.4444ZM83.4173 81.8329L82.7647 84.2463L83.4173 81.8329ZM86.2162 92.2821L84.456 90.5068L86.2162 92.2821ZM79.5293 95.3913C78.5488 96.3634 78.542 97.9463 79.5141 98.9268C80.4862 99.9073 82.0691 99.9141 83.0496 98.942L79.5293 95.3913ZM46.3516 116.207C47.4441 115.846 49.1386 115.74 51.4977 115.907C53.806 116.07 56.4617 116.468 59.3663 116.92C65.0298 117.802 71.683 118.915 77.3117 118.407L76.862 113.427C71.9841 113.867 66.0294 112.897 60.1357 111.979C57.2617 111.532 54.4014 111.1 51.8504 110.92C49.3502 110.743 46.8421 110.779 44.7826 111.46L46.3516 116.207ZM77.3117 118.407C85.5535 117.662 89.0847 117.872 97.0875 114L94.9099 109.5C87.8708 112.905 85.2885 112.666 76.862 113.427L77.3117 118.407ZM97.0875 114C104.187 110.565 111.464 102.593 116.005 97.0336L112.133 93.8704C107.568 99.4594 100.904 106.6 94.9099 109.5L97.0875 114ZM99.9498 83.4789L91.6273 91.7302L95.1477 95.2809L103.47 87.0296L99.9498 83.4789ZM84.4724 94.6667H70.7829V99.6667H84.4724V94.6667ZM91.6273 91.7302C89.7334 93.6079 87.1601 94.6667 84.4724 94.6667V99.6667C88.4723 99.6667 92.3128 98.0915 95.1477 95.2809L91.6273 91.7302ZM113.526 82.1439C109.26 79.3241 103.581 79.8789 99.9498 83.4789L103.47 87.0296C105.416 85.1008 108.474 84.7978 110.769 86.3151L113.526 82.1439ZM116.005 97.0336C119.919 92.2423 118.489 85.4244 113.526 82.1439L110.769 86.3151C113.473 88.1021 114.018 91.5627 112.133 93.8704L116.005 97.0336ZM22.4526 78.8333H39.2632V73.8333H22.4526V78.8333ZM40.9658 80.5V118H45.9658V80.5H40.9658ZM39.2632 119.667H22.4526V124.667H39.2632V119.667ZM20.75 118V80.5H15.75V118H20.75ZM22.4526 119.667C21.492 119.667 20.75 118.9 20.75 118H15.75C15.75 121.702 18.7712 124.667 22.4526 124.667V119.667ZM40.9658 118C40.9658 118.9 40.2238 119.667 39.2632 119.667V124.667C42.9446 124.667 45.9658 121.702 45.9658 118H40.9658ZM39.2632 78.8333C40.2238 78.8333 40.9658 79.5997 40.9658 80.5H45.9658C45.9658 76.7979 42.9446 73.8333 39.2632 73.8333V78.8333ZM22.4526 73.8333C18.7712 73.8333 15.75 76.7979 15.75 80.5H20.75C20.75 79.5997 21.492 78.8333 22.4526 78.8333V73.8333ZM46.6775 86.9066L53.0738 83.7358L50.8531 79.256L44.4567 82.4268L46.6775 86.9066ZM65.1197 80.9167H66.8432V75.9167H65.1197V80.9167ZM73.9312 81.8577L82.7647 84.2463L84.0698 79.4196L75.2363 77.0311L73.9312 81.8577ZM84.456 90.5068L79.5293 95.3913L83.0496 98.942L87.9763 94.0575L84.456 90.5068ZM82.7647 84.2463C85.5952 85.0116 86.4952 88.485 84.456 90.5068L87.9763 94.0575C92.7824 89.2926 90.5789 81.1796 84.0698 79.4196L82.7647 84.2463ZM66.8432 80.9167C69.2377 80.9167 71.6214 81.2332 73.9312 81.8577L75.2363 77.0311C72.5008 76.2914 69.6783 75.9167 66.8432 75.9167V80.9167ZM53.0738 83.7358C56.813 81.8822 60.9372 80.9167 65.1197 80.9167V75.9167C60.1681 75.9167 55.2837 77.0596 50.8531 79.256L53.0738 83.7358ZM95.6 47.1667C95.6 54.9705 89.2133 61.3333 81.2895 61.3333V66.3333C91.9341 66.3333 100.6 57.7723 100.6 47.1667H95.6ZM81.2895 61.3333C73.3657 61.3333 66.9789 54.9705 66.9789 47.1667H61.9789C61.9789 57.7723 70.6449 66.3333 81.2895 66.3333V61.3333ZM66.9789 47.1667C66.9789 39.3628 73.3657 33 81.2895 33V28C70.6449 28 61.9789 36.561 61.9789 47.1667H66.9789ZM81.2895 33C89.2133 33 95.6 39.3628 95.6 47.1667H100.6C100.6 36.561 91.9341 28 81.2895 28V33ZM64.4789 44.6667C56.5552 44.6667 50.1684 38.3038 50.1684 30.5H45.1684C45.1684 41.1057 53.8343 49.6667 64.4789 49.6667V44.6667ZM50.1684 30.5C50.1684 22.6962 56.5552 16.3333 64.4789 16.3333V11.3333C53.8343 11.3333 45.1684 19.8943 45.1684 30.5H50.1684ZM64.4789 16.3333C72.4027 16.3333 78.7895 22.6962 78.7895 30.5H83.7895C83.7895 19.8943 75.1236 11.3333 64.4789 11.3333V16.3333Z" fill="black"/>
</g>
<defs>
<filter id="filter0_d_2328_5546" x="-13" y="-8" width="160" height="160" filterUnits="userSpaceOnUse" color-interpolation-filters="sRGB">
<feFlood flood-opacity="0" result="BackgroundImageFix"/>
<feColorMatrix in="SourceAlpha" type="matrix" values="0 0 0 0 0 0 0 0 0 0 0 0 0 0 0 0 0 0 127 0" result="hardAlpha"/>
<feOffset dy="4"/>
<feGaussianBlur stdDeviation="7.5"/>
<feComposite in2="hardAlpha" operator="out"/>
<feColorMatrix type="matrix" values="0 0 0 0 0 0 0 0 0 1 0 0 0 0 0 0 0 0 0.5 0"/>
<feBlend mode="normal" in2="BackgroundImageFix" result="effect1_dropShadow_2328_5546"/>
<feBlend mode="normal" in="SourceGraphic" in2="effect1_dropShadow_2328_5546" result="shape"/>
</filter>
</defs>
</svg>
