<svg width="43" height="44" viewBox="0 0 43 44" fill="none" xmlns="http://www.w3.org/2000/svg">
<path d="M38.5996 0.733398H4.39961C2.30011 0.733398 0.599609 2.46373 0.599609 4.60006V39.4001C0.599609 41.5364 2.30011 43.2667 4.39961 43.2667H38.5996C40.6991 43.2667 42.3996 41.5364 42.3996 39.4001V4.60006C42.3996 2.46373 40.6991 0.733398 38.5996 0.733398ZM13.8122 35.5334H8.20721V17.1822H13.8122V35.5334ZM10.9527 14.5587C9.14581 14.5587 7.68471 13.0681 7.68471 11.2333C7.68471 9.3986 9.14771 7.90993 10.9527 7.90993C12.7539 7.90993 14.2188 9.40053 14.2188 11.2333C14.2188 13.0681 12.7539 14.5587 10.9527 14.5587ZM34.8072 35.5334H29.206V26.6091C29.206 24.4805 29.168 21.7429 26.2933 21.7429C23.3768 21.7429 22.9284 24.061 22.9284 26.4545V35.5334H17.3272V17.1822H22.7042V19.6897H22.7802C23.5288 18.2475 25.3566 16.7259 28.0831 16.7259C33.7584 16.7259 34.8072 20.5269 34.8072 25.4685V35.5334Z" fill="white"/>
</svg>
