<svg width="82" height="96" viewBox="0 0 82 96" fill="none" xmlns="http://www.w3.org/2000/svg">
<path d="M38.9183 0.150303C42.3466 1.09579 43.7456 2.11357 46.2454 4.59859C47.0225 5.35996 47.7996 6.12133 48.6003 6.90577C49.8288 8.14941 49.8288 8.14941 51.082 9.41817C52.3642 10.6932 52.3642 10.6932 53.6723 11.9939C55.4744 13.7927 57.2703 15.5978 59.0603 17.4086C61.8025 20.1776 64.5703 22.9189 67.3418 25.6584C69.0901 27.4101 70.8369 29.1633 72.582 30.9182C73.4111 31.7371 74.2402 32.5561 75.0944 33.3999C76.2365 34.5656 76.2365 34.5656 77.4016 35.7548C78.0741 36.4313 78.7466 37.1078 79.4395 37.8048C81.4063 40.5719 81.8263 42.6278 82 46.0002C80 48.8752 80 48.8752 77 51.0002C75.5285 50.9113 75.5285 50.9113 74.0273 50.8205C68.3764 50.6436 63.5326 53.6073 58.5625 56.0002C57.5448 56.4772 56.5271 56.9541 55.4785 57.4455C52.9798 58.6186 50.4876 59.8037 48 61.0002C48.6511 61.2711 49.3021 61.5421 49.9729 61.8212C50.6418 62.2103 51.3108 62.5994 52 63.0002C52.4336 65.8635 52.4336 65.8635 52.4375 69.3127C52.5573 74.631 52.5573 74.631 55.5 78.9377C56.325 79.6183 57.15 80.299 58 81.0002C59.0559 84.3792 59.2005 86.2816 58.25 89.6877C56.9946 92.0102 56.0314 93.337 54 95.0002C50.5318 95.9506 47.4888 95.8241 44 95.0002C40.4395 92.6256 37.7219 89.6752 34.875 86.5002C34.1093 85.6894 33.3436 84.8786 32.5547 84.0432C30.6784 82.0496 28.8294 80.0367 27 78.0002C24.5064 79.204 22.3186 80.4545 20 82.0002C15.7831 82.6435 13.4246 82.9254 9.80469 80.5744C5.28817 76.6829 1.38023 73.2816 0.375 67.2502C0.612602 61.6614 4.18883 58.7205 8 55.0002C9.02952 54.1273 9.02952 54.1273 10.0798 53.2368C17.1544 46.9659 20.518 39.7139 24.1426 31.1794C25.1315 28.8599 26.1606 26.5613 27.1953 24.2619C27.8436 22.7773 28.4895 21.2917 29.1328 19.8049C29.4378 19.1255 29.7429 18.4462 30.0572 17.7463C32.0202 13.0356 31.8512 9.94968 31 5.0002C33.4042 1.50323 34.5583 -0.0739495 38.9183 0.150303ZM37 5.0002C36.6905 7.9821 36.6905 7.9821 38.3912 9.76563C39.0425 10.4163 39.6937 11.0669 40.3647 11.7373C41.0991 12.4778 41.8334 13.2183 42.5899 13.9813C43.393 14.7752 44.196 15.569 45.0234 16.3869C45.8399 17.2039 46.6565 18.0209 47.4977 18.8627C49.2276 20.5903 50.9613 22.3142 52.6982 24.0346C55.3657 26.6785 58.0195 29.3354 60.6719 31.9943C62.3508 33.6677 64.0304 35.3402 65.7109 37.0119C66.5099 37.8118 67.309 38.6118 68.1322 39.4359C69.2431 40.5325 69.2431 40.5325 70.3765 41.6513C71.0293 42.2996 71.6822 42.9478 72.3548 43.6157C73.8967 45.2148 73.8967 45.2148 76 45.0002C74.5964 41.8249 72.9358 39.6876 70.4841 37.2414C69.7668 36.521 69.0494 35.8005 68.3103 35.0582C67.5363 34.2914 66.7623 33.5246 65.9648 32.7346C65.171 31.9412 64.3771 31.1478 63.5592 30.3303C61.8829 28.657 60.2042 26.9862 58.5232 25.3176C55.9387 22.7514 53.3623 20.1772 50.7871 17.6018C49.1593 15.9789 47.5311 14.3565 45.9023 12.7346C45.1263 11.9597 44.3503 11.1848 43.5508 10.3864C42.8366 9.67854 42.1223 8.9707 41.3865 8.24141C40.7552 7.61394 40.1239 6.98647 39.4735 6.33999C38.2086 4.88808 38.2086 4.88808 37 5.0002ZM36 16.0002C31.71 25.9002 27.42 35.8002 23 46.0002C27.8011 51.642 27.8011 51.642 32.875 56.9377C33.4705 57.5242 34.0661 58.1107 34.6797 58.715C35.1154 59.1391 35.5511 59.5632 36 60.0002C46.5478 56.124 56.7658 51.6292 67 47.0002C65.3451 42.7331 62.1509 39.863 58.9688 36.7033C58.377 36.1097 57.7853 35.5161 57.1757 34.9044C55.9273 33.6548 54.6765 32.4076 53.4233 31.1628C51.4999 29.2501 49.5874 27.327 47.6758 25.4025C46.4616 24.1897 45.2468 22.9774 44.0312 21.7658C43.4573 21.1878 42.8833 20.6097 42.2919 20.0142C39.6397 16.9894 39.6397 16.9894 36 16.0002ZM12.9375 56.6252C12.3826 57.1473 11.8276 57.6693 11.2559 58.2072C8.60089 60.8266 7.14435 62.5579 5.96875 66.1604C6.01398 70.2708 7.49236 71.713 10.2617 74.5588C12.0693 76.1769 12.0693 76.1769 14.875 77.3752C19.8934 76.773 22.5483 73.493 26 70.0002C26.9127 69.1069 26.9127 69.1069 27.8438 68.1955C29.2456 66.8135 30.6253 65.4092 32 64.0002C30.4678 60.3696 28.2817 58.0138 25.5 55.2502C24.7059 54.451 23.9119 53.6518 23.0938 52.8283C18.6531 48.9511 16.2991 53.299 12.9375 56.6252ZM32.375 69.5002C31.1994 70.7377 31.1994 70.7377 30 72.0002C32.0862 76.5978 35.2448 79.687 38.75 83.2502C39.3584 83.8999 39.9669 84.5496 40.5938 85.219C44.327 89.0631 44.327 89.0631 49.3906 90.4846C51.919 90.27 51.919 90.27 53 89.0002C53.7479 86.3181 53.7479 86.3181 53 83.0002C50.6933 79.8791 47.9397 77.286 45.125 74.6252C44.3786 73.8892 43.6323 73.1531 42.8633 72.3947C38.0201 66.7209 38.0201 66.7209 32.375 69.5002ZM44 67.0002C44.99 67.9902 45.98 68.9802 47 70.0002C47 69.0102 47 68.0202 47 67.0002C46.01 67.0002 45.02 67.0002 44 67.0002Z" fill="black"/>
</svg>
