<svg width="100" height="100" viewBox="0 0 100 100" fill="none" xmlns="http://www.w3.org/2000/svg">
<path d="M60 22.335C60 20.31 61.31 18.585 62.795 17.2C64.175 15.915 65 14.28 65 12.5C65 8.36 60.525 5 55 5C49.475 5 45 8.36 45 12.5C45 14.31 45.855 15.97 47.28 17.265C48.73 18.59 50 20.265 50 22.235C50.0038 22.897 49.872 23.5527 49.6127 24.1618C49.3535 24.7709 48.9723 25.3205 48.4927 25.7767C48.013 26.2329 47.4451 26.5862 46.8238 26.8146C46.2024 27.043 45.541 27.1419 44.88 27.105C39.8391 26.7855 34.8122 26.2751 29.81 25.575C29.235 25.4943 28.6491 25.5482 28.0985 25.7324C27.5478 25.9167 27.0475 26.2263 26.6369 26.6369C26.2263 27.0475 25.9167 27.5478 25.7324 28.0985C25.5482 28.6491 25.4943 29.235 25.575 29.81C26.275 34.7767 26.785 39.8 27.105 44.88C27.1419 45.541 27.043 46.2024 26.8146 46.8238C26.5862 47.4451 26.2329 48.013 25.7767 48.4927C25.3205 48.9723 24.7709 49.3535 24.1618 49.6127C23.5527 49.872 22.897 50.0038 22.235 50C20.27 50 18.59 48.735 17.265 47.28C15.97 45.85 14.31 45 12.5 45C8.36 45 5 49.475 5 55C5 60.525 8.36 65 12.5 65C14.28 65 15.915 64.175 17.2 62.795C18.58 61.31 20.31 60 22.335 60C23.0067 59.9949 23.6725 60.1256 24.2924 60.3843C24.9123 60.643 25.4736 61.0243 25.9424 61.5053C26.4113 61.9863 26.7781 62.5571 27.0209 63.1834C27.2636 63.8097 27.3773 64.4787 27.355 65.15C27.1153 71.3948 26.5831 77.625 25.76 83.82C25.629 84.8022 25.892 85.7962 26.4916 86.5851C27.0912 87.3739 27.9786 87.8934 28.96 88.03C34.21 88.76 39.5167 89.29 44.88 89.62C45.5418 89.6569 46.2041 89.5578 46.8261 89.3288C47.4481 89.0997 48.0165 88.7456 48.4963 88.2883C48.9761 87.831 49.3571 87.2802 49.6157 86.6699C49.8744 86.0596 50.0051 85.4028 50 84.74C50 82.77 48.73 81.09 47.275 79.765C45.855 78.465 45 76.81 45 75C45 70.86 49.475 67.5 55 67.5C60.525 67.5 65 70.86 65 75C65 76.78 64.175 78.415 62.795 79.7C61.31 81.08 60 82.81 60 84.835C59.9963 85.5065 60.128 86.1719 60.3871 86.7915C60.6462 87.411 61.0275 87.972 61.5081 88.441C61.9887 88.9099 62.5589 89.2773 63.1846 89.5211C63.8104 89.7649 64.4788 89.8802 65.15 89.86C71.84 89.61 78.4417 89.0483 84.955 88.175C85.7707 88.066 86.5278 87.6916 87.1097 87.1097C87.6916 86.5278 88.066 85.7707 88.175 84.955C89.0517 78.4417 89.6133 71.84 89.86 65.15C89.8802 64.4788 89.7649 63.8104 89.5211 63.1846C89.2773 62.5589 88.9099 61.9887 88.441 61.5081C87.972 61.0275 87.411 60.6462 86.7915 60.3871C86.1719 60.128 85.5065 59.9963 84.835 60C82.81 60 81.085 61.31 79.7 62.795C78.415 64.175 76.78 65 75 65C70.86 65 67.5 60.525 67.5 55C67.5 49.475 70.86 45 75 45C76.81 45 78.47 45.85 79.765 47.275C81.09 48.73 82.77 50 84.74 50C85.4028 50.0051 86.0596 49.8744 86.6699 49.6157C87.2802 49.3571 87.831 48.9761 88.2883 48.4963C88.7456 48.0165 89.0997 47.4481 89.3288 46.8261C89.5578 46.2041 89.6569 45.5418 89.62 44.88C89.2974 39.5547 88.767 34.244 88.03 28.96C87.8934 27.9786 87.3739 27.0912 86.5851 26.4916C85.7962 25.892 84.8022 25.629 83.82 25.76C77.68 26.5833 71.4567 27.115 65.15 27.355C64.4787 27.3773 63.8097 27.2636 63.1834 27.0209C62.5571 26.7781 61.9863 26.4113 61.5053 25.9424C61.0243 25.4736 60.643 24.9123 60.3843 24.2924C60.1256 23.6725 59.9949 23.0067 60 22.335Z" fill="black"/>
</svg>
