<svg width="54" height="73" viewBox="0 0 54 73" fill="none" xmlns="http://www.w3.org/2000/svg">
<path d="M13 0.75C14.1962 0.744844 15.3925 0.739688 16.625 0.734375C19.9446 0.995639 22.1539 1.27143 25 3C25.7852 5.27734 25.7852 5.27734 26.0625 7.9375C26.4041 11.1146 26.5728 12.5428 28.7773 14.9023C30.9302 16.2394 30.9302 16.2394 33.2188 15.6016C33.9716 15.2793 34.7244 14.957 35.5 14.625C37.8824 13.6215 39.4693 12.9627 42.0586 13.1445C47.3362 15.4701 50.8976 22.1583 53 27.3125C54.2484 31.916 54.2484 31.916 53 35C51.3359 36.4922 51.3359 36.4922 49.375 37.875C47.48 39.3527 47.48 39.3527 46 41C45.4177 44.173 45.4177 44.173 47 47C48.9808 48.3618 50.9808 49.6959 53 51C54.2252 54.2168 54.1155 55.6842 52.9258 58.9375C52.3934 59.9481 51.861 60.9588 51.3125 62C50.793 63.0106 50.2735 64.0213 49.7383 65.0625C48.0127 67.9786 46.3261 70.5328 44 73C40.75 72.875 40.75 72.875 37 72C35.627 71.8173 34.2518 71.6507 32.875 71.5C29.8707 71.1124 26.956 70.6466 24 70C23.8125 67.625 23.8125 67.625 24 65C27.2275 62.8484 28.2051 62.7276 31.9375 62.75C32.7921 62.7448 33.6468 62.7397 34.5273 62.7344C37.1197 63.0129 38.7651 63.6933 41 65C43.1623 60.1542 43.1623 60.1542 44 55C41.6874 52.2707 41.6874 52.2707 39 50C37.2757 46.5514 37.6327 42.7782 38 39C39.6605 35.2639 42.0227 32.772 45 30C43.68 27.69 42.36 25.38 41 23C40.2034 23.107 39.4067 23.214 38.5859 23.3242C27.6024 24.5669 27.6024 24.5669 23 21C19.7338 17.0276 18.7069 14.0182 18 9C16.8566 9.0116 15.7132 9.0232 14.5352 9.03516C13.0443 9.04453 11.5534 9.05363 10.0625 9.0625C8.93038 9.07507 8.93038 9.07507 7.77539 9.08789C5.85006 9.09652 3.92464 9.05224 2 9C1 8 1 8 0.9375 5.4375C0.958125 4.63313 0.97875 3.82875 1 3C5.10996 1.03843 8.46646 0.730459 13 0.75Z" fill="black"/>
</svg>
