<svg width="100" height="100" viewBox="0 0 100 100" fill="none" xmlns="http://www.w3.org/2000/svg">
<path d="M37.0889 13.7096C38.1505 13.6968 39.2121 13.684 40.3058 13.6709C41.4579 13.6687 42.6099 13.6664 43.7969 13.6642C45.5692 13.6542 45.5692 13.6542 47.3773 13.644C49.8823 13.6338 52.3875 13.6292 54.8926 13.6295C58.7205 13.6251 62.5473 13.5889 66.375 13.5509C68.8073 13.545 71.2396 13.541 73.6719 13.5392C75.3878 13.5176 75.3878 13.5176 77.1384 13.4956C83.3533 13.5312 87.3796 13.6413 92 18.0001C94.0176 21.2081 94.2609 23.7429 94.2905 27.4996C94.3033 28.6011 94.316 29.7026 94.3292 30.8375C94.3314 32.0229 94.3336 33.2084 94.3359 34.4298C94.3459 36.2644 94.3459 36.2644 94.3561 38.1361C94.3662 40.7234 94.3709 43.3107 94.3706 45.898C94.375 49.8531 94.4113 53.807 94.4492 57.7618C94.4551 60.2761 94.4591 62.7905 94.4609 65.3048C94.4753 66.4862 94.4897 67.6676 94.5045 68.8848C94.4696 75.1679 94.4379 79.3418 90 84.0001C87.237 85.892 85.0552 86.2553 81.7422 86.2657C80.5569 86.2696 80.5569 86.2696 79.3477 86.2735C78.5317 86.2658 77.7157 86.2581 76.875 86.2501C76.0513 86.2578 75.2276 86.2656 74.3789 86.2735C73.5913 86.271 72.8037 86.2684 71.9922 86.2657C71.274 86.2635 70.5559 86.2612 69.8159 86.2589C68 86.0001 68 86.0001 66 84.0001C66.375 81.3751 66.375 81.3751 67 79.0001C68.1202 78.9511 69.2404 78.9021 70.3945 78.8517C71.8672 78.7766 73.3399 78.7011 74.8125 78.6251C75.5505 78.5942 76.2885 78.5632 77.0488 78.5313C80.8189 78.3266 82.7965 78.1357 86 76.0001C86.4586 73.7167 86.4586 73.7167 86.3882 71.0313C86.3976 69.9969 86.4071 68.9624 86.4168 67.8966C86.4108 66.7757 86.4047 65.6549 86.3984 64.5001C86.4027 62.7802 86.4027 62.7802 86.4071 61.0255C86.4092 58.5977 86.4036 56.17 86.3911 53.7423C86.3751 50.0153 86.3909 46.2895 86.4102 42.5626C86.4082 40.2084 86.4043 37.8543 86.3984 35.5001C86.4045 34.3793 86.4106 33.2584 86.4168 32.1036C86.4074 31.0691 86.3979 30.0347 86.3882 28.9688C86.3846 27.5989 86.3846 27.5989 86.381 26.2013C86.2552 25.4749 86.1295 24.7485 86 24.0001C82.7225 21.8151 81.6949 21.7366 77.886 21.6812C76.8451 21.6614 75.8043 21.6415 74.7319 21.621C73.049 21.6037 73.049 21.6037 71.332 21.586C69.6071 21.557 69.6071 21.557 67.8473 21.5273C64.1691 21.4675 60.4909 21.4211 56.8125 21.3751C54.3209 21.3369 51.8294 21.2979 49.3379 21.2579C43.2254 21.1618 37.1128 21.0768 31 21.0001C30.375 18.6251 30.375 18.6251 30 16.0001C32.56 13.4401 33.5333 13.7385 37.0889 13.7096Z" fill="black"/>
<path d="M19.1881 13.8127C20.0685 13.8191 20.9489 13.8256 21.856 13.8322C24.0006 14.0002 24.0006 14.0002 25.0006 15.0002C25.1256 17.5002 25.1256 17.5002 25.0006 20.0002C23.046 21.9547 19.6703 21.9658 17.0318 22.5002C15.0182 22.81 15.0182 22.81 14.0006 24.0002C13.8915 25.6158 13.8515 27.2362 13.8394 28.8554C13.8298 29.89 13.8202 30.9245 13.8103 31.9904C13.8061 33.1164 13.8018 34.2424 13.7975 35.4025C13.7918 36.5506 13.7861 37.6986 13.7802 38.8814C13.7707 41.3151 13.7642 43.7488 13.7603 46.1826C13.7506 49.9182 13.7196 53.6533 13.6881 57.3889C13.6816 59.7476 13.6763 62.1063 13.6725 64.465C13.6601 65.589 13.6478 66.713 13.635 67.871C13.638 68.9087 13.641 69.9464 13.6441 71.0156C13.6405 71.9319 13.6368 72.8482 13.6331 73.7923C13.7544 74.5209 13.8756 75.2495 14.0006 76.0002C17.0829 78.0551 17.7803 78.2554 21.2726 78.3032C22.13 78.3198 22.9874 78.3365 23.8708 78.3536C24.7928 78.362 25.7148 78.3704 26.6646 78.3791C27.6125 78.3961 28.5603 78.4131 29.5368 78.4306C32.5663 78.4838 35.5958 78.524 38.6256 78.5627C41.6624 78.6066 44.6991 78.6532 47.7358 78.7055C49.6265 78.7376 51.5173 78.7644 53.4082 78.7857C54.2593 78.7992 55.1105 78.8127 55.9874 78.8266C56.74 78.8361 57.4926 78.8456 58.2681 78.8554C60.0006 79.0002 60.0006 79.0002 61.0006 80.0002C61.1256 82.5002 61.1256 82.5002 61.0006 85.0002C59.4424 86.5584 57.9269 86.1504 55.7596 86.1772C54.8581 86.19 53.9566 86.2029 53.0278 86.2161C51.5544 86.2272 51.5544 86.2272 50.0514 86.2385C49.046 86.2465 48.0406 86.2546 47.0048 86.2629C44.8703 86.2768 42.7359 86.2875 40.6014 86.2954C37.3441 86.3125 34.0877 86.3564 30.8307 86.4006C28.7584 86.4107 26.6861 86.4192 24.6139 86.426C23.6418 86.4435 22.6697 86.461 21.6681 86.479C15.9652 86.4608 12.4196 85.9914 8.00058 82.0002C5.97515 78.7985 5.73962 76.2544 5.71005 72.5007C5.69729 71.3992 5.68453 70.2977 5.67139 69.1628C5.66916 67.9774 5.66694 66.7919 5.66464 65.5705C5.65799 64.3474 5.65133 63.1243 5.64447 61.8642C5.63434 59.2769 5.62965 56.6896 5.62997 54.1022C5.6256 50.1472 5.58929 46.1933 5.55136 42.2385C5.54549 39.7242 5.54152 37.2098 5.53964 34.6955C5.52527 33.5141 5.5109 32.3327 5.49609 31.1155C5.53118 24.798 5.65804 20.7584 10.0006 16.0002C13.0187 13.8637 15.5414 13.7534 19.1881 13.8127Z" fill="black"/>
<path d="M46 34.9999C49.4045 36.3883 52.5929 38.1054 55.8125 39.8749C56.6833 40.3351 57.554 40.7953 58.4512 41.2694C64.8574 44.7147 64.8574 44.7147 66 46.9999C66.3825 50.5191 66.445 52.3413 64.4375 55.3124C61.2995 57.4848 58.7745 57.7862 55 57.9999C54 56.9999 54 56.9999 53.9375 54.4374C53.9581 53.633 53.9788 52.8286 54 51.9999C54.99 51.6699 55.98 51.3399 57 50.9999C57 50.3399 57 49.6799 57 48.9999C56.1544 48.7524 55.3088 48.5049 54.4375 48.2499C50.6157 46.8602 47.4813 45.0887 44 42.9999C44.33 47.2899 44.66 51.5799 45 55.9999C46.65 55.9999 48.3 55.9999 50 55.9999C50.66 57.3199 51.32 58.6399 52 59.9999C47.2655 64.8922 47.2655 64.8922 43.0625 65.2499C40 64.9999 40 64.9999 38.3335 63.8241C36.5116 61.3317 36.6123 59.632 36.6016 56.5624C36.5977 55.5028 36.5938 54.4432 36.5898 53.3515C36.6014 52.2454 36.613 51.1394 36.625 49.9999C36.6134 48.8939 36.6018 47.7879 36.5898 46.6483C36.5937 45.5887 36.5976 44.5291 36.6016 43.4374C36.6049 42.4667 36.6083 41.4961 36.6118 40.496C37 37.9999 37 37.9999 38.364 36.1908C41.0694 34.2214 42.6981 34.5255 46 34.9999Z" fill="black"/>
<path d="M81.5 67.875C84 68 84 68 85 69C85.0408 70.9996 85.0426 73.0005 85 75C82.69 75 80.38 75 78 75C77.9575 73.0005 77.9592 70.9996 78 69C79 68 79 68 81.5 67.875Z" fill="black"/>
<path d="M68.5 67.875C71 68 71 68 72 69C72.0408 70.9996 72.0426 73.0005 72 75C69.69 75 67.38 75 65 75C64.9575 73.0005 64.9592 70.9996 65 69C66 68 66 68 68.5 67.875Z" fill="black"/>
<path d="M56.5 67.875C59 68 59 68 60 69C60.0408 70.9996 60.0426 73.0005 60 75C57.69 75 55.38 75 53 75C52.9575 73.0005 52.9592 70.9996 53 69C54 68 54 68 56.5 67.875Z" fill="black"/>
<path d="M43.5 67.875C46 68 46 68 47 69C47.0408 70.9996 47.0426 73.0005 47 75C44.69 75 42.38 75 40 75C39.9575 73.0005 39.9592 70.9996 40 69C41 68 41 68 43.5 67.875Z" fill="black"/>
<path d="M31.5 67.875C34 68 34 68 35 69C35.0408 70.9996 35.0426 73.0005 35 75C32.69 75 30.38 75 28 75C27.9575 73.0005 27.9592 70.9996 28 69C29 68 29 68 31.5 67.875Z" fill="black"/>
<path d="M18.5 67.875C21 68 21 68 22 69C22.0408 70.9996 22.0426 73.0005 22 75C19.69 75 17.38 75 15 75C14.9575 73.0005 14.9592 70.9996 15 69C16 68 16 68 18.5 67.875Z" fill="black"/>
<path d="M78 25C80.31 25 82.62 25 85 25C85.0426 26.9995 85.0408 29.0004 85 31C84 32 84 32 81.5 32.125C79 32 79 32 78 31C77.9592 29.0004 77.9575 26.9995 78 25Z" fill="black"/>
<path d="M65 25C67.31 25 69.62 25 72 25C72.0426 26.9995 72.0408 29.0004 72 31C71 32 71 32 68.5 32.125C66 32 66 32 65 31C64.9592 29.0004 64.9575 26.9995 65 25Z" fill="black"/>
<path d="M53 25C55.31 25 57.62 25 60 25C60.0426 26.9995 60.0408 29.0004 60 31C59 32 59 32 56.5 32.125C54 32 54 32 53 31C52.9592 29.0004 52.9575 26.9995 53 25Z" fill="black"/>
<path d="M40 25C42.31 25 44.62 25 47 25C47.0426 26.9995 47.0408 29.0004 47 31C46 32 46 32 43.5 32.125C41 32 41 32 40 31C39.9592 29.0004 39.9575 26.9995 40 25Z" fill="black"/>
<path d="M28 25C30.31 25 32.62 25 35 25C35.0426 26.9995 35.0408 29.0004 35 31C34 32 34 32 31.5 32.125C29 32 29 32 28 31C27.9592 29.0004 27.9575 26.9995 28 25Z" fill="black"/>
<path d="M15 25C17.31 25 19.62 25 22 25C22.0426 26.9995 22.0408 29.0004 22 31C21 32 21 32 18.5 32.125C16 32 16 32 15 31C14.9592 29.0004 14.9575 26.9995 15 25Z" fill="black"/>
</svg>
